# xmcd CD database file
#
# Track frame offsets:
#	182
#	40625
#	70747
#	97017
#	112825
#	136860
#	155672
#	175547
#	213482
#	229975
#
# Disc length: 3400 seconds
#
# Revision: 11
# Processed by: cddbd v1.5.2PL0 Copyright (c) Steve Scherf et al.
# Submitted via: CDex 1.51
#
DISCID=7e0d460a
DTITLE=Jimmy Page and The Black Crowes - Live At The Greek [Disc 2]
DYEAR=2000
DGENRE=Rock
TTITLE0=The Lemon Song
TTITLE1=Nobody's Fault But Mine
TTITLE2=Heartbreaker
TTITLE3=Hey Hey What Can I Do
TTITLE4=Mellow Down Easy
TTITLE5=Oh Well
TTITLE6=Shake Your Money Maker
TTITLE7=You Shook Me
TTITLE8=Out On The Tiles
TTITLE9=Whole Lotta Love
EXTD=2000 TVT Records  TVT2140-2\n\nThis is NOT the Musicmaker.com release. This is the TVT reissue enhanced CD.\n\nsubmitted by: Mknight YEAR: 2000
EXTT0=
EXTT1=
EXTT2=
EXTT3=
EXTT4=
EXTT5=
EXTT6=
EXTT7=
EXTT8=
EXTT9=
PLAYORDER=
